<svg id="visual" viewBox="0 0 900 600" width="900" height="600" xmlns="http://www.w3.org/2000/svg" xmlns:xlink="http://www.w3.org/1999/xlink" version="1.1"><rect x="0" y="0" width="900" height="600" fill="#f6f6f6"></rect><path d="M0 136L21.5 128.5C43 121 86 106 128.8 106.5C171.7 107 214.3 123 257.2 125.5C300 128 343 117 385.8 112.7C428.7 108.3 471.3 110.7 514.2 110C557 109.3 600 105.7 642.8 108.7C685.7 111.7 728.3 121.3 771.2 125.7C814 130 857 129 878.5 128.5L900 128L900 0L878.5 0C857 0 814 0 771.2 0C728.3 0 685.7 0 642.8 0C600 0 557 0 514.2 0C471.3 0 428.7 0 385.8 0C343 0 300 0 257.2 0C214.3 0 171.7 0 128.8 0C86 0 43 0 21.5 0L0 0Z" fill="#d4d1d1"></path><path d="M0 113L21.5 106.2C43 99.3 86 85.7 128.8 84.7C171.7 83.7 214.3 95.3 257.2 98.3C300 101.3 343 95.7 385.8 92.8C428.7 90 471.3 90 514.2 95C557 100 600 110 642.8 107.5C685.7 105 728.3 90 771.2 83.2C814 76.3 857 77.7 878.5 78.3L900 79L900 0L878.5 0C857 0 814 0 771.2 0C728.3 0 685.7 0 642.8 0C600 0 557 0 514.2 0C471.3 0 428.7 0 385.8 0C343 0 300 0 257.2 0C214.3 0 171.7 0 128.8 0C86 0 43 0 21.5 0L0 0Z" fill="#ccb5ba"></path><path d="M0 96L21.5 93.5C43 91 86 86 128.8 80.8C171.7 75.7 214.3 70.3 257.2 65.7C300 61 343 57 385.8 57.8C428.7 58.7 471.3 64.3 514.2 64.2C557 64 600 58 642.8 61.3C685.7 64.7 728.3 77.3 771.2 84C814 90.7 857 91.3 878.5 91.7L900 92L900 0L878.5 0C857 0 814 0 771.2 0C728.3 0 685.7 0 642.8 0C600 0 557 0 514.2 0C471.3 0 428.7 0 385.8 0C343 0 300 0 257.2 0C214.3 0 171.7 0 128.8 0C86 0 43 0 21.5 0L0 0Z" fill="#be9aad"></path><path d="M0 63L21.5 64C43 65 86 67 128.8 62.5C171.7 58 214.3 47 257.2 44.7C300 42.3 343 48.7 385.8 52.5C428.7 56.3 471.3 57.7 514.2 54.3C557 51 600 43 642.8 43.8C685.7 44.7 728.3 54.3 771.2 58.5C814 62.7 857 61.3 878.5 60.7L900 60L900 0L878.5 0C857 0 814 0 771.2 0C728.3 0 685.7 0 642.8 0C600 0 557 0 514.2 0C471.3 0 428.7 0 385.8 0C343 0 300 0 257.2 0C214.3 0 171.7 0 128.8 0C86 0 43 0 21.5 0L0 0Z" fill="#a782a7"></path><path d="M0 30L21.5 31C43 32 86 34 128.8 34.2C171.7 34.3 214.3 32.7 257.2 29C300 25.3 343 19.7 385.8 18.2C428.7 16.7 471.3 19.3 514.2 24.2C557 29 600 36 642.8 35.8C685.7 35.7 728.3 28.3 771.2 24.7C814 21 857 21 878.5 21L900 21L900 0L878.5 0C857 0 814 0 771.2 0C728.3 0 685.7 0 642.8 0C600 0 557 0 514.2 0C471.3 0 428.7 0 385.8 0C343 0 300 0 257.2 0C214.3 0 171.7 0 128.8 0C86 0 43 0 21.5 0L0 0Z" fill="#846ea5"></path></svg>