<svg id="visual" viewBox="0 0 900 600" width="900" height="600" xmlns="http://www.w3.org/2000/svg" xmlns:xlink="http://www.w3.org/1999/xlink" version="1.1"><rect x="0" y="0" width="900" height="600" fill="#ffffff"></rect><path d="M0 90L18.8 92.7C37.7 95.3 75.3 100.7 112.8 102.3C150.3 104 187.7 102 225.2 108.5C262.7 115 300.3 130 337.8 129.2C375.3 128.3 412.7 111.7 450.2 102.7C487.7 93.7 525.3 92.3 562.8 98C600.3 103.7 637.7 116.3 675.2 123.7C712.7 131 750.3 133 787.8 129.3C825.3 125.7 862.7 116.3 881.3 111.7L900 107L900 0L881.3 0C862.7 0 825.3 0 787.8 0C750.3 0 712.7 0 675.2 0C637.7 0 600.3 0 562.8 0C525.3 0 487.7 0 450.2 0C412.7 0 375.3 0 337.8 0C300.3 0 262.7 0 225.2 0C187.7 0 150.3 0 112.8 0C75.3 0 37.7 0 18.8 0L0 0Z" fill="#6e4ba2"></path><path d="M0 91L18.8 88.2C37.7 85.3 75.3 79.7 112.8 81.2C150.3 82.7 187.7 91.3 225.2 98.5C262.7 105.7 300.3 111.3 337.8 110.7C375.3 110 412.7 103 450.2 101.3C487.7 99.7 525.3 103.3 562.8 107.8C600.3 112.3 637.7 117.7 675.2 115.8C712.7 114 750.3 105 787.8 100.8C825.3 96.7 862.7 97.3 881.3 97.7L900 98L900 0L881.3 0C862.7 0 825.3 0 787.8 0C750.3 0 712.7 0 675.2 0C637.7 0 600.3 0 562.8 0C525.3 0 487.7 0 450.2 0C412.7 0 375.3 0 337.8 0C300.3 0 262.7 0 225.2 0C187.7 0 150.3 0 112.8 0C75.3 0 37.7 0 18.8 0L0 0Z" fill="#9c53a3"></path><path d="M0 64L18.8 69.2C37.7 74.3 75.3 84.7 112.8 88.2C150.3 91.7 187.7 88.3 225.2 84.5C262.7 80.7 300.3 76.3 337.8 77C375.3 77.7 412.7 83.3 450.2 84.7C487.7 86 525.3 83 562.8 77.7C600.3 72.3 637.7 64.7 675.2 65.8C712.7 67 750.3 77 787.8 77.5C825.3 78 862.7 69 881.3 64.5L900 60L900 0L881.3 0C862.7 0 825.3 0 787.8 0C750.3 0 712.7 0 675.2 0C637.7 0 600.3 0 562.8 0C525.3 0 487.7 0 450.2 0C412.7 0 375.3 0 337.8 0C300.3 0 262.7 0 225.2 0C187.7 0 150.3 0 112.8 0C75.3 0 37.7 0 18.8 0L0 0Z" fill="#c25ea0"></path><path d="M0 37L18.8 39.3C37.7 41.7 75.3 46.3 112.8 50.2C150.3 54 187.7 57 225.2 54.2C262.7 51.3 300.3 42.7 337.8 42.3C375.3 42 412.7 50 450.2 50.3C487.7 50.7 525.3 43.3 562.8 40.5C600.3 37.7 637.7 39.3 675.2 39.7C712.7 40 750.3 39 787.8 42.2C825.3 45.3 862.7 52.7 881.3 56.3L900 60L900 0L881.3 0C862.7 0 825.3 0 787.8 0C750.3 0 712.7 0 675.2 0C637.7 0 600.3 0 562.8 0C525.3 0 487.7 0 450.2 0C412.7 0 375.3 0 337.8 0C300.3 0 262.7 0 225.2 0C187.7 0 150.3 0 112.8 0C75.3 0 37.7 0 18.8 0L0 0Z" fill="#e16f9c"></path><path d="M0 16L18.8 18C37.7 20 75.3 24 112.8 23.8C150.3 23.7 187.7 19.3 225.2 19.2C262.7 19 300.3 23 337.8 26.3C375.3 29.7 412.7 32.3 450.2 33C487.7 33.7 525.3 32.3 562.8 29C600.3 25.7 637.7 20.3 675.2 19.5C712.7 18.7 750.3 22.3 787.8 22.7C825.3 23 862.7 20 881.3 18.5L900 17L900 0L881.3 0C862.7 0 825.3 0 787.8 0C750.3 0 712.7 0 675.2 0C637.7 0 600.3 0 562.8 0C525.3 0 487.7 0 450.2 0C412.7 0 375.3 0 337.8 0C300.3 0 262.7 0 225.2 0C187.7 0 150.3 0 112.8 0C75.3 0 37.7 0 18.8 0L0 0Z" fill="#fa8498"></path></svg>